<?xml version="1.0" encoding="utf-8"?>
<!-- Generator: Adobe Illustrator 22.0.0, SVG Export Plug-In . SVG Version: 6.00 Build 0)  -->
<svg version="1.1" id="Layer_1" xmlns="http://www.w3.org/2000/svg" xmlns:xlink="http://www.w3.org/1999/xlink" x="0px" y="0px"
	 viewBox="0 0 18 18" style="enable-background:new 0 0 18 18;" xml:space="preserve">
<path d="M17,7h-6V5h2.4l-0.3-0.3c-0.6-0.6-1.3-1-2-1.3C10.5,3.1,9.8,3,9.1,3C7.8,3,6.6,3.4,5.6,4.1S3.8,5.8,3.3,7H1.2
	c0.5-1.8,1.4-3.2,2.9-4.3S7.2,1,9.1,1c1,0,2,0.2,3,0.5s1.9,1,2.6,1.8L15,3.8V1h2V7z M13.9,15.3c-1.4,1.1-3.1,1.7-4.9,1.7
	c-1,0-2-0.2-2.9-0.6s-1.8-1-2.7-1.8L3,14.3V17H1v-6h6v2H4.5l0.3,0.3c0.6,0.6,1.3,1,2,1.3S8.2,15,8.9,15c1.3,0,2.4-0.4,3.5-1.1
	c1-0.7,1.8-1.7,2.2-2.9h2.1C16.3,12.8,15.3,14.2,13.9,15.3z"/>
</svg>
