<?xml version="1.0" encoding="utf-8"?>
<!-- Generator: Adobe Illustrator 22.0.0, SVG Export Plug-In . SVG Version: 6.00 Build 0)  -->
<svg version="1.1" id="Layer_1" xmlns="http://www.w3.org/2000/svg" xmlns:xlink="http://www.w3.org/1999/xlink" x="0px" y="0px"
	 viewBox="0 0 18 18" style="enable-background:new 0 0 18 18;" xml:space="preserve">
<path d="M9,17.5c-1.2,0-2.3-0.2-3.3-0.7c-1-0.4-1.9-1.1-2.7-1.8s-1.4-1.7-1.8-2.7S0.5,10.2,0.5,9s0.2-2.3,0.7-3.3S2.2,3.8,3,3
	s1.7-1.4,2.7-1.8S7.8,0.5,9,0.5c0.9,0,1.8,0.1,2.6,0.4c0.8,0.3,1.6,0.6,2.3,1.1l-1.2,1.3c-0.5-0.3-1.1-0.6-1.7-0.8
	C10.3,2.3,9.7,2.2,9,2.2c-1.9,0-3.5,0.7-4.8,2s-2,2.9-2,4.8s0.7,3.5,2,4.8s2.9,2,4.8,2s3.5-0.7,4.8-2s2-2.9,2-4.8c0-0.3,0-0.5,0-0.8
	c0-0.3-0.1-0.5-0.1-0.7L17,6.1c0.2,0.5,0.3,0.9,0.4,1.4c0.1,0.5,0.1,1,0.1,1.5c0,1.2-0.2,2.3-0.7,3.3c-0.4,1-1.1,1.9-1.8,2.7
	s-1.7,1.4-2.7,1.8C11.3,17.3,10.2,17.5,9,17.5z M7.8,12.9L4.2,9.3l1.2-1.2l2.4,2.4L16.3,2l1.2,1.2L7.8,12.9z"/>
</svg>
