<?xml version="1.0" encoding="utf-8"?>
<!-- Generator: Adobe Illustrator 22.0.0, SVG Export Plug-In . SVG Version: 6.00 Build 0)  -->
<svg version="1.1" id="Layer_1" xmlns="http://www.w3.org/2000/svg" xmlns:xlink="http://www.w3.org/1999/xlink" x="0px" y="0px"
	 viewBox="0 0 18 18" style="enable-background:new 0 0 18 18;" xml:space="preserve">
<path d="M9,16.8l-1.2-1.1c-1.4-1.3-2.6-2.4-3.5-3.3C3.3,11.4,2.5,10.6,2,9.8C1.4,9.1,1,8.4,0.8,7.8S0.5,6.5,0.5,5.9
	c0-1.3,0.4-2.4,1.3-3.3s2-1.3,3.3-1.3c0.7,0,1.4,0.2,2.1,0.5S8.5,2.4,9,3c0.5-0.6,1.1-1,1.7-1.3c0.7-0.3,1.4-0.5,2.1-0.5
	c1.3,0,2.4,0.4,3.3,1.3c0.9,0.9,1.3,2,1.3,3.3c0,0.7-0.1,1.3-0.3,1.9C17,8.4,16.6,9.1,16,9.8c-0.6,0.7-1.3,1.6-2.2,2.5
	c-0.9,0.9-2.1,2-3.5,3.3L9,16.8z"/>
</svg>
